<svg xmlns="http://www.w3.org/2000/svg" width="137" height="138" viewBox="0 0 137 138" fill="none">
  <g clip-path="url(#clip0_726_353)">
    <path d="M78.8486 105.873H91.5284C96.7752 105.873 102.896 104.416 106.249 99.8977C109.746 95.2338 109.892 88.3839 109.892 80.8051C109.892 73.3721 110.184 65.5019 106.686 60.8381C103.334 56.32 98.2327 53.9881 93.1316 53.9881H85.6986V43.203H102.022C103.479 43.203 105.374 42.3285 106.54 40.8711C106.54 40.8711 107.852 39.2679 107.852 37.3732C107.852 35.4785 107.415 34.7498 106.832 33.7296C105.811 31.9807 103.479 30.9604 102.022 30.9604H78.8486C77.0997 30.9604 75.788 31.6892 74.9135 33.2924C73.8933 35.0413 73.4561 36.7902 73.4561 38.5392V97.7115C73.4561 100.189 73.8933 102.23 74.9135 103.687C75.788 105.144 77.2454 105.873 78.8486 105.873ZM85.6986 66.3764H91.3826C93.5688 66.3764 97.2124 66.5221 97.2124 72.7892V81.0966V89.1126C96.9209 93.1934 93.5688 93.7764 91.3826 93.7764L85.6986 93.6307V66.3764Z" fill="#9E2629"/>
    <path d="M35.8535 106.311C37.6024 106.311 39.7886 105.582 40.8088 103.979C41.829 102.521 42.1205 101.355 42.1205 98.8777V80.6596H49.262C51.7396 80.6596 54.2173 80.0767 56.5492 78.9107C60.0471 77.016 62.962 74.1011 65.0024 70.0203C67.0428 65.9394 68.063 61.2756 68.063 55.883C68.063 48.4501 66.3141 42.4745 62.6705 37.8107C59.1726 33.2926 54.6545 31.1064 48.9705 31.1064H35.7077C33.9588 31.1064 32.5013 31.8352 31.4811 33.2926C30.4609 34.7501 29.8779 36.7905 29.8779 39.2681V99.0235C29.8779 101.355 30.3152 102.521 31.1896 104.125C32.0641 105.582 34.1045 106.311 35.8535 106.311ZM42.1205 43.4947H48.5332C50.8652 43.4947 52.6141 45.8267 54.0715 47.8671C55.529 49.9075 56.2577 52.5309 56.2577 55.883C56.2577 59.0894 55.529 61.8586 54.0715 63.899C52.6141 65.9394 50.8652 68.4171 48.5332 68.4171H42.1205V43.4947Z" fill="#9E2629"/>
    <path d="M68.3549 76.1412V73.9551C67.9177 74.6838 67.3347 75.4125 66.8975 76.1412C67.3347 76.1412 67.9177 76.1412 68.3549 76.1412Z" fill="#9E2629"/>
    <path d="M2.33046 80.5139C4.80812 79.348 7.14004 78.182 9.6177 77.016C13.2613 75.2671 16.905 75.4128 20.5486 77.1618C22.0061 77.8905 23.3178 78.6192 24.6295 79.348V73.8097C24.4837 73.8097 24.4837 73.6639 24.338 73.6639C21.5688 71.7692 18.2166 70.8948 14.573 70.749C14.1358 70.749 13.5528 70.8948 12.8241 70.8948C9.18046 71.4777 5.97408 73.2267 2.62195 74.8299C1.31025 75.4129 0.581528 75.8501 0.290039 76.2873C0.435784 77.599 0.581531 79.0565 0.873021 80.3682C1.31025 80.8054 1.74748 80.8054 2.33046 80.5139Z" fill="#9E2629"/>
    <path d="M62.6699 80.6597C64.1274 81.0969 65.5848 81.3884 67.188 81.3884C67.6252 81.3884 68.0625 81.3884 68.354 81.3884V76.1416C67.9167 76.1416 67.3338 76.1416 66.8965 76.1416C65.7306 77.8905 64.2731 79.348 62.6699 80.6597Z" fill="#9E2629"/>
    <path d="M125.777 72.0602C121.987 70.6028 118.344 70.4571 114.7 71.623C114.846 73.3719 114.846 74.9751 114.846 76.7241C118.198 75.2666 121.696 75.4124 125.194 77.0156C127.526 78.1815 129.712 79.3475 132.19 80.2219C133.501 80.8049 134.376 80.9507 134.959 80.9507C135.25 79.3475 135.542 77.7443 135.687 76.1411C132.044 75.4124 129.129 73.3719 125.777 72.0602Z" fill="#9E2629"/>
    <path d="M127.236 81.6797C123.155 79.6392 118.928 79.3478 114.993 80.6595V80.8052C114.993 82.5541 114.993 84.1573 114.993 85.9063C118.2 84.5946 121.406 84.4488 124.612 85.9063C126.507 86.7807 128.547 87.8009 130.442 88.6754C131.608 89.2584 132.337 89.5499 132.774 89.5499C133.211 88.0924 133.648 86.4892 134.086 85.0318C133.94 84.8861 133.794 84.8861 133.648 84.7403C131.462 83.8658 129.276 82.6999 127.236 81.6797Z" fill="#9E2629"/>
    <path d="M5.68339 88.0924C7.28658 87.3636 8.74403 86.6349 10.2015 85.9062C13.4079 84.4487 16.6143 84.5945 19.8207 86.0519C21.4238 86.7807 23.027 87.6551 24.6302 88.5296V82.9913C23.9015 82.6998 23.3185 82.2626 22.5898 81.9711C18.3632 79.9307 13.9908 79.3477 9.32701 81.0966C6.99509 81.9711 4.80891 83.137 2.47699 84.303C2.1855 84.4487 1.89403 84.5945 1.60254 84.886C1.89403 86.3434 2.33126 87.6551 2.7685 89.1126C3.78871 89.5498 4.80892 88.3838 5.68339 88.0924Z" fill="#9E2629"/>
    <path d="M68.3552 90.4244V85.3234C65.8775 85.4691 63.5456 85.0319 61.0679 83.7202C60.4849 83.4287 59.902 83.1372 59.319 82.8457C59.1732 82.9914 58.8818 83.1372 58.736 83.1372C56.6956 84.1574 54.5094 84.8861 52.3232 85.1776C53.9264 85.6148 55.5296 86.1978 57.1328 87.218C59.319 88.5297 61.5052 89.55 64.1286 89.9872C65.586 90.5702 67.0435 90.5702 68.3552 90.4244Z" fill="#9E2629"/>
    <path d="M68.3559 94.3591C65.0037 94.6506 61.5059 93.6304 58.008 91.59C54.3644 89.4038 50.7208 88.6751 47.0771 89.1123V94.2134C48.9718 93.7762 51.0123 93.9219 52.9069 94.6506C54.3644 95.2336 55.8218 95.9623 57.2793 96.6911C60.3399 98.2942 63.4006 99.6059 67.0442 99.7517C67.4814 99.7517 67.9186 99.7517 68.3559 99.7517C68.3559 99.1687 68.2101 98.5857 68.2101 97.857V94.3591H68.3559Z" fill="#9E2629"/>
    <path d="M114.555 89.6957C114.409 91.5903 114.118 93.485 113.681 95.3797C118.199 93.3393 122.717 93.485 127.235 96.2542C127.672 96.5457 128.255 96.6914 128.692 96.9829C128.984 97.1286 129.275 97.2744 129.567 97.4201C130.296 95.9627 130.879 94.5052 131.462 93.0478C131.316 92.902 131.316 92.902 131.17 92.7563C125.777 89.5499 120.239 87.9467 114.555 89.6957Z" fill="#9E2629"/>
    <path d="M8.74562 95.5255C12.9722 93.3394 17.1988 93.3394 21.4254 95.6713C22.4456 96.2543 23.6116 96.8372 24.6318 97.4202V91.8819C24.486 91.7362 24.3403 91.7362 24.1945 91.5904C21.4254 89.6958 18.219 88.8213 14.7211 88.8213C11.0775 88.967 8.0169 90.2787 4.81052 91.8819C4.51903 92.0277 4.22754 92.3192 4.22754 92.4649C4.66477 93.7766 5.24775 95.0883 5.83073 96.2543C6.55945 96.6915 7.28818 96.2543 8.74562 95.5255Z" fill="#9E2629"/>
    <path d="M61.2136 102.813C59.9019 102.084 58.5902 101.501 57.2785 100.918C53.7806 99.1693 50.4285 98.4406 47.0764 98.8779V99.0236C47.0764 101.064 46.9306 102.521 46.3477 103.979C49.6998 103.25 53.0519 103.833 56.404 105.874C57.57 106.602 58.8817 107.185 60.1934 107.768C62.3796 108.788 64.7115 109.517 66.7519 109.226C69.2296 109.226 70.8328 109.08 72.5817 108.643C71.9987 108.06 71.4157 107.477 70.8328 106.602C70.3955 105.874 69.9583 104.999 69.6668 104.125C66.7519 104.562 63.9828 104.27 61.2136 102.813Z" fill="#9E2629"/>
    <path d="M113.244 99.8981C112.807 100.044 112.224 100.335 111.787 100.481C111.35 101.356 110.767 102.084 110.184 102.959C107.997 105.874 104.791 107.914 101.147 109.372C103.771 109.663 106.394 109.08 109.018 107.623C110.767 106.748 112.516 105.728 114.264 104.853C117.471 103.396 120.823 102.959 124.029 104.708C124.612 104.999 125.05 105.145 125.487 105.145C126.361 103.833 127.09 102.522 127.964 101.064C127.819 100.918 127.673 100.773 127.382 100.773C122.718 98.4407 118.054 98.0034 113.244 99.8981Z" fill="#9E2629"/>
    <path d="M11.5147 104.124C14.2839 102.959 17.1987 103.542 19.8221 104.853C21.4253 105.582 23.0285 106.456 24.486 107.331C25.9434 108.205 27.5466 108.788 29.004 109.08C28.1296 108.497 27.4009 107.622 26.8179 106.894C25.7977 105.29 25.2147 103.833 24.9232 102.23C24.6317 102.084 24.1945 101.793 23.903 101.647C19.8221 99.0234 15.0126 98.149 10.203 99.6064C8.74556 100.044 8.01684 100.335 7.87109 100.772C8.59982 102.084 9.1828 103.25 10.0573 104.562C10.3488 104.416 10.9317 104.416 11.5147 104.124Z" fill="#9E2629"/>
    <path d="M25.6514 117.096C30.1695 119.428 34.5419 119.282 39.0599 116.804C40.0802 116.221 41.2461 115.638 42.2663 115.055C46.9302 112.286 51.594 112.286 56.4036 115.055C56.8408 115.347 57.4238 115.638 57.861 115.93C60.6302 117.241 63.3993 118.407 66.6057 118.553C70.6865 118.699 74.1844 117.533 77.5365 115.493C82.9291 112.286 88.1759 111.995 93.4227 115.493C94.0057 115.93 94.7344 116.076 95.3174 116.513C100.127 119.282 104.937 119.428 109.746 116.658C110.912 116.076 111.932 115.347 113.098 114.764C114.701 113.889 116.45 113.015 118.345 113.015C118.782 113.015 119.22 113.015 119.657 112.869C120.823 111.412 121.989 109.954 123.155 108.497C122.863 108.351 122.572 108.351 122.28 108.205C118.928 107.768 115.722 108.205 112.515 109.663C110.766 110.537 109.017 111.412 107.268 112.432C104.208 114.181 101.001 114.181 97.9408 112.286C96.9206 111.703 95.9004 111.12 94.7344 110.537C93.7142 110.683 92.694 110.683 91.6738 110.683H78.994C78.2653 110.683 77.3908 110.537 76.6621 110.391C75.4961 110.974 74.4759 111.412 73.3099 111.995C69.3748 113.889 65.4397 113.889 61.5046 111.849C59.7557 110.974 58.0068 110.1 56.2578 109.371C51.594 107.331 47.0759 107.185 42.4121 109.226C40.5174 110.1 38.6227 111.12 36.8738 112.14C33.6674 113.889 30.6068 113.889 27.4004 112.14C25.7972 111.12 24.0482 110.246 22.2993 109.517C20.1131 108.497 17.7812 107.768 15.4493 107.914C14.8663 107.914 14.1376 107.914 13.5547 107.914C13.2632 107.914 13.1174 108.06 12.9717 108.205C14.1376 109.808 15.3036 111.266 16.4695 112.723C19.6759 113.744 22.7365 115.493 25.6514 117.096Z" fill="#9E2629"/>
    <path d="M107.414 121.76C104.208 123.654 101.001 123.654 97.7951 121.905C96.1919 121.031 94.5887 120.156 92.8398 119.282C88.4675 117.242 83.9494 116.95 79.4313 118.699C77.2451 119.573 75.2047 120.594 73.1643 121.614C69.2292 123.509 65.1483 123.509 61.2132 121.468C59.7557 120.739 58.1526 120.011 56.6951 119.282C51.8855 116.95 47.076 116.804 42.1206 119.136C40.226 120.011 38.3313 121.031 36.5823 122.051C33.376 123.8 30.1696 123.654 27.1089 121.905C25.943 121.177 24.777 120.448 23.1738 120.011C26.6717 123.071 30.4611 125.695 34.5419 128.027C34.8334 128.027 35.1249 127.881 35.4164 127.881C37.894 127.298 39.9345 125.986 41.9749 124.675C47.076 121.614 52.0313 121.905 56.9866 124.966C63.8366 129.193 70.6866 129.193 77.3908 125.112C82.7834 121.905 88.0302 121.614 93.277 125.112C95.6089 126.569 98.0866 127.735 100.856 128.172C105.665 125.549 110.038 122.197 114.119 118.553C113.536 118.699 112.953 118.991 112.515 119.136C110.912 120.011 109.163 120.885 107.414 121.76Z" fill="#9E2629"/>
    <path d="M62.5241 1.37447C60.4837 5.45532 59.4635 9.68191 60.7752 14.2C61.3581 16.0947 61.9411 17.9894 63.1071 19.5926C66.1677 23.9649 66.605 28.1915 64.4188 32.4181C65.1475 33.1468 65.7305 33.8755 66.4592 34.6043C66.8964 35.1872 67.3337 35.7702 67.7709 36.3532C68.2081 35.6245 68.6454 34.75 69.0826 34.0213C71.706 29.3574 71.706 24.6936 69.0826 20.0298C68.6454 19.1553 68.2081 18.2809 67.6252 17.4064C64.4188 12.3053 64.5645 7.20426 67.6252 2.10319C68.2081 1.22872 68.3539 0.791489 68.2081 0.5H68.0624C66.3135 0.5 64.7103 0.645745 62.9613 0.645745C62.8156 0.937234 62.6699 1.22872 62.5241 1.37447Z" fill="#9E2629"/>
    <path d="M71.5596 1.37448C69.0819 6.03831 68.3532 10.9936 70.3936 16.0947C71.2681 18.5723 72.7256 20.6128 73.8915 22.9447C74.4745 24.2564 74.9117 25.4223 74.9117 26.8798C76.0777 26.2968 77.3894 26.0053 78.8468 26.0053H79.867C79.7213 23.9649 79.1383 21.9245 77.9724 20.0298C77.5351 19.3011 77.2436 18.7181 76.8064 17.9894C73.4543 12.8883 73.1628 7.6415 76.5149 2.39469C76.6607 2.1032 76.8064 1.81172 76.8064 1.66597C76.8064 1.52023 76.8064 1.37448 76.8064 1.22874C75.349 1.08299 73.8915 0.937249 72.4341 0.791504C71.9968 0.937249 71.7053 1.22874 71.5596 1.37448Z" fill="#9E2629"/>
    <path d="M51.0125 12.7426C51.7412 16.3862 53.4901 19.4469 55.2391 22.6533C56.1135 24.2565 56.5508 25.8597 56.405 27.3171C58.0082 27.9001 59.6114 28.7745 61.0689 29.649C61.7976 26.2969 61.0689 22.9448 59.1742 19.5926C58.8827 19.0097 58.5912 18.4267 58.154 17.9894C54.9476 12.8883 54.6561 7.78728 57.8625 2.54047C57.8625 2.39473 58.0082 2.39473 58.0082 2.24899C58.154 1.81175 58.2997 1.52026 58.154 1.37451C56.2593 1.666 54.3646 1.95749 52.4699 2.39473C52.3242 2.54048 52.3242 2.68622 52.1784 2.97771C51.0125 6.03835 50.2837 9.24473 51.0125 12.7426Z" fill="#9E2629"/>
    <path d="M80.1571 2.54024C78.6997 5.89237 77.8252 9.2445 78.5539 12.8881C79.2826 16.5317 81.1773 19.7381 82.9263 22.9445C83.5092 23.9647 83.8007 25.1306 83.9465 26.1509H88.9018C88.7561 24.1104 88.0273 21.9243 86.8614 19.8838C86.1326 18.5721 85.4039 17.1147 84.6752 15.6572C82.9263 12.0136 82.7805 8.37003 84.5295 4.72641C84.9667 3.7062 85.2582 3.26896 85.1124 2.83173C83.655 2.3945 82.1975 2.10301 80.5944 1.81152C80.4486 1.95726 80.3029 2.24875 80.1571 2.54024Z" fill="#9E2629"/>
    <path d="M88.613 16.3863C89.4875 18.5725 90.6534 20.6129 91.8194 22.6533C92.5481 23.8193 92.8396 24.9853 93.1311 26.1512H98.0864C97.9407 24.548 97.5035 22.9448 96.629 21.3416C95.9003 19.7384 95.0258 18.281 94.1513 16.6778C92.4024 13.3257 91.6737 9.97358 93.1311 6.32996C93.2769 6.03847 93.2769 5.89273 93.2769 5.60124C91.8194 5.01826 90.362 4.43528 88.9045 3.99805C88.613 4.28954 88.613 4.58103 88.4673 5.01826C87.0098 8.66188 87.1556 12.597 88.613 16.3863Z" fill="#9E2629"/>
    <path d="M97.0658 13.0341C97.6487 16.2405 99.2519 19.0097 100.855 21.7788C101.73 23.2363 102.167 24.6937 102.458 26.0054C104.062 26.1511 105.81 26.5884 107.559 27.6086C107.559 27.4629 107.559 27.3171 107.559 27.0256C107.414 23.965 106.248 21.1958 104.79 18.5724C103.479 16.2405 102.021 13.9086 101.875 11.2852C101.875 10.4107 101.73 9.82774 101.438 9.24476C100.126 8.51604 98.669 7.78732 97.3572 7.05859C97.2115 7.20434 97.0658 7.49583 97.0658 7.78732C96.92 9.682 96.7743 11.4309 97.0658 13.0341Z" fill="#9E2629"/>
    <path d="M41.2471 10.5565C41.2471 11.2853 41.3928 12.014 41.5386 12.7427C42.1215 16.3863 44.0162 19.447 45.7652 22.6533C46.3481 23.8193 46.7854 24.8395 46.9311 26.0055H48.68C49.7003 26.0055 50.8662 26.1512 51.8864 26.297C51.7407 24.548 51.1577 22.7991 50.2832 20.9044C49.846 20.1757 49.5545 19.3012 48.9715 18.5725C46.2024 14.0544 44.8907 9.53633 47.5141 4.58101C47.8056 4.14378 47.8056 3.85229 47.5141 3.70654C45.7652 4.28952 44.0162 4.8725 42.2673 5.60122C41.5386 6.62144 41.2471 8.07888 41.2471 10.5565Z" fill="#9E2629"/>
    <path d="M32.0645 13.4714C32.7933 16.8236 34.5422 19.7385 36.1454 22.6533C36.7284 23.8193 37.1656 24.8395 37.3114 26.0055H42.2667C42.1209 23.6736 41.2465 21.6331 40.0805 19.5927C38.3316 16.3863 36.2911 13.1799 36.5826 9.39058C36.5826 9.09909 36.5826 8.66186 36.2911 8.51611C35.1252 9.09909 33.8135 9.82782 32.6475 10.5565C32.0645 11.431 31.7731 12.4512 32.0645 13.4714Z" fill="#9E2629"/>
    <path d="M24.0482 51.0734C24.3397 51.5107 24.4854 52.0936 24.7769 52.5309V39.2681C24.7769 37.8107 24.9226 36.499 25.2141 35.333C24.9226 35.7702 24.6312 36.3532 24.4854 36.7905C22.1535 41.4543 21.862 46.1181 24.0482 51.0734Z" fill="#9E2629"/>
    <path d="M24.6306 18.1351C25.5051 19.5925 26.2338 21.05 26.9625 22.3617C28.2742 24.6936 28.5657 26.8797 27.9827 29.2117C29.4402 27.6085 31.1891 26.5883 33.0838 26.151C32.938 24.1106 32.3551 22.2159 31.3348 20.3212C30.6061 18.8638 29.7317 17.4063 29.0029 15.9489C28.2742 14.4914 27.837 13.7627 27.3997 13.7627C26.2338 14.6372 25.2136 15.3659 24.1934 16.2404C24.1934 16.9691 24.1934 17.5521 24.6306 18.1351Z" fill="#9E2629"/>
    <path d="M108.142 51.9483C109.017 53.843 110.037 55.7376 110.911 57.6323C111.203 58.0696 111.349 58.6525 111.494 59.0898C113.243 61.8589 113.972 65.0653 114.409 68.5632C114.701 68.4174 114.992 68.4174 115.138 68.2717C115.721 67.9802 115.867 67.543 116.012 66.96C117.033 62.8791 117.033 59.0898 115.138 55.3004C114.118 53.1142 113.098 51.0738 112.077 48.8876C111.203 46.8472 110.911 44.8068 111.203 42.9121C110.766 43.6408 110.474 44.0781 110.328 44.2238C109.308 45.3898 107.997 46.41 106.539 47.1387C106.831 48.7419 107.268 50.3451 108.142 51.9483Z" fill="#9E2629"/>
    <path d="M106.83 14.1999C107.558 17.1148 109.016 19.7382 110.473 22.2158C112.222 25.1307 112.368 28.1914 110.91 31.252C110.91 31.252 110.91 31.3978 111.056 31.3978C111.931 33.001 112.805 34.6041 112.805 37.519C112.805 37.8105 112.805 38.102 112.805 38.3935C113.68 36.6446 114.7 34.8956 115.574 33.1467C117.469 29.2116 117.323 25.4222 115.72 21.3414C115.283 20.4669 114.846 19.5924 114.408 18.718C112.076 16.5318 109.453 14.4914 106.83 12.5967C106.392 13.0339 106.684 13.6169 106.83 14.1999Z" fill="#9E2629"/>
    <path d="M79.2842 127.881C77.5353 128.609 75.6407 129.484 73.8918 130.358C69.5195 132.69 65.2927 132.69 60.9204 130.358C58.5885 129.047 56.1108 127.881 53.6332 127.152C48.5321 125.694 43.8683 127.006 39.4959 129.484C39.2044 129.63 39.0588 129.775 38.9131 129.921C40.662 130.796 42.5566 131.524 44.3055 132.253C44.597 132.253 44.8885 132.253 45.0342 132.107C47.9491 130.941 51.0097 130.941 53.9246 132.253C55.2363 132.836 56.5482 133.565 57.8599 134.148C59.4631 134.876 60.9204 135.751 62.5236 136.188C64.4183 136.625 65.2929 136.917 67.3333 136.917C68.645 136.917 70.831 136.771 71.997 136.334C74.0374 135.751 75.9321 134.731 77.8268 133.71C81.3246 131.816 85.114 130.067 89.0491 131.962C89.6321 132.253 90.2151 132.399 90.798 132.544C92.6927 131.816 94.5875 131.087 96.4822 130.213C96.3365 130.067 96.3363 130.067 96.0449 129.921C90.9438 126.86 85.4055 125.403 79.2842 127.881Z" fill="#9E2629"/>
    <path d="M2.04043 72.2063C2.6234 71.9148 2.91489 71.3318 3.20638 70.7488C3.78936 69.2914 4.37234 67.834 4.66383 66.2308C5.82979 61.4212 4.80957 56.9031 1.89468 52.5308C0.582971 57.6318 0 63.0244 0 68.5627C0 69.8744 -2.22606e-06 71.0403 0.145742 72.352C0.437231 72.935 1.02022 72.7893 2.04043 72.2063Z" fill="#9E2629"/>
    <path d="M13.9927 66.0849C14.7213 62.7328 14.7213 59.3807 13.2639 56.1743C12.2437 53.9881 11.2235 51.802 10.2033 49.7615C8.30863 45.9722 8.45437 42.1828 10.3491 38.3935C11.2235 36.7903 12.098 35.3328 12.8267 33.7296C13.8469 31.5435 14.7213 29.3573 14.4299 26.7339C10.0576 32.2722 6.55969 38.5392 4.08203 45.2435C4.08203 45.535 4.08203 45.8264 4.08203 46.1179C4.51927 49.9073 6.41395 53.2594 8.16288 56.6115C9.47458 59.0892 9.91182 61.7126 9.32884 64.336C9.18309 65.502 8.74586 66.6679 8.30863 67.8339C8.16288 68.4169 8.16288 68.5626 8.45437 68.7084L13.4097 67.1052C13.8469 66.9594 13.9927 66.6679 13.9927 66.0849Z" fill="#9E2629"/>
    <path d="M23.0255 67.6883C24.3372 63.4617 24.3372 59.2351 22.2968 55.1542C21.2766 53.2595 20.4021 51.3648 19.5276 49.3244C17.9245 45.8266 17.9245 42.4744 19.5276 38.9765C20.2564 37.3734 21.1308 35.9159 22.0053 34.3127C23.1713 31.9808 24.1913 29.6489 24.0456 27.0255C24.1913 24.5478 23.317 22.2159 22.1511 20.0297C22.0053 19.5925 21.7138 19.1553 21.2766 19.1553C20.4021 20.0297 19.5276 20.7585 18.7989 21.6329C18.5074 22.3617 18.3617 23.0904 18.6532 23.6734C19.6734 26.0053 19.6734 28.4829 18.5074 30.8148C17.7787 32.1265 17.05 33.4383 16.3213 34.75C13.1148 40.434 12.6776 46.118 15.5925 52.0936C16.3213 53.6968 17.05 55.3 17.9245 56.7574C19.3819 59.3808 19.5276 62.15 18.7989 65.0648C18.5074 66.3765 18.3617 66.9595 18.5074 67.3968L22.4425 68.7085C22.734 68.7085 22.8798 68.2712 23.0255 67.6883Z" fill="#9E2629"/>
    <path d="M125.049 67.1052C126.069 63.3158 126.214 59.5264 124.466 55.8828C123.591 54.1339 122.717 52.2392 121.842 50.4903C119.51 46.1179 119.656 41.8913 122.134 37.6647C123.008 35.9158 124.028 34.3126 124.757 32.5637C124.903 32.2722 125.049 31.9807 125.049 31.8349C123.883 29.9403 122.571 28.1913 121.113 26.4424C121.259 29.7945 119.364 32.4179 117.907 35.1871C117.761 35.6243 117.47 36.0615 117.324 36.4988C114.701 41.7456 114.701 46.8466 117.178 52.0935C118.053 53.8424 118.781 55.4456 119.656 57.0488C120.822 59.3807 121.259 61.8583 120.676 64.4817C120.385 66.0849 120.239 66.9594 120.676 67.3966L124.174 68.2711C124.611 67.9796 124.903 67.6881 125.049 67.1052Z" fill="#9E2629"/>
    <path d="M133.064 70.4577C134.23 67.6886 134.958 64.9194 134.958 61.713C135.104 59.5269 134.375 57.3407 133.355 55.3003C132.335 53.1141 131.169 50.9279 130.294 48.7418C129.42 46.7013 128.837 44.5152 129.566 42.4747C129.857 41.8918 129.857 41.3088 130.003 40.7258C129.129 38.8311 128.254 36.9364 127.234 35.1875C127.088 35.3332 126.942 35.479 126.942 35.7705C124.61 40.2886 123.882 44.9524 125.485 49.9077C126.359 52.2396 127.38 54.4258 128.546 56.4662C130.586 60.1098 130.44 63.6077 129.129 67.3971C128.546 68.8545 128.4 69.4375 128.691 70.0205L132.043 71.7694C132.335 71.4779 132.772 71.0407 133.064 70.4577Z" fill="#9E2629"/>
  </g>
  <defs>
    <clipPath id="clip0_726_353">
      <rect width="137" height="137" fill="white" transform="translate(0 0.5)"/>
    </clipPath>
  </defs>
</svg>