<svg xmlns="http://www.w3.org/2000/svg" width="1440" height="359" viewBox="0 0 1440 359" fill="none">
  <path fill-rule="evenodd" clip-rule="evenodd" d="M1404.17 40.9619C1378.53 91.8331 1353.25 142.88 1327.77 193.814C1320.74 207.878 1313.69 221.934 1306.64 235.981C1306.32 235.937 1306.01 235.874 1305.68 235.855V230.084C1305.68 175.758 1305.66 121.427 1305.62 67.0885C1305.62 62.3132 1305.25 57.545 1304.52 52.8258C1302.89 43.714 1299.3 35.0634 1294 27.4707C1288.7 19.878 1281.82 13.5237 1273.82 8.84612C1265.83 4.1685 1256.91 1.27902 1247.69 0.376558C1238.47 -0.525903 1229.16 0.580089 1220.41 3.61872C1199.79 11.3185 1186.98 26.988 1177.5 45.9485C1146.62 107.769 1115.75 169.595 1084.91 231.428C1084.08 233.061 1083.16 234.675 1082.28 236.282L1081.26 235.793V229.82C1081.26 174.025 1081.25 118.228 1081.23 62.4284C1081.01 52.7057 1078.57 43.1619 1074.09 34.5243C1069.62 25.8867 1063.23 18.3836 1055.41 12.587C1047.6 6.7904 1038.56 2.85303 1028.99 1.07574C1019.41 -0.701548 1009.56 -0.272164 1000.18 2.33113C978.001 8.96323 964.038 24.8401 954.079 44.8055C923.009 106.931 891.974 169.084 860.975 231.264C860.17 232.878 859.283 234.461 858.46 236.044C858.164 235.874 857.831 235.749 857.542 235.579V230.084C857.542 175.947 857.542 121.803 857.542 67.6535C857.525 63.4274 857.237 59.207 856.681 55.0176C855.28 45.0224 851.524 35.5022 845.721 27.2404C839.917 18.9785 832.233 12.2109 823.301 7.4949C814.368 2.77888 804.443 0.249191 794.341 0.113597C784.238 -0.0219963 774.248 2.24026 765.192 6.71484C749.407 15.3978 736.909 29.0124 729.613 45.4713C714.034 76.6911 698.593 108.024 683.02 139.25C678.292 148.746 673.35 158.135 668.515 167.55V169.107L656.193 193.814C649.156 207.878 642.11 221.934 635.056 235.981C634.735 235.937 634.427 235.874 634.088 235.855V230.084C634.088 175.758 634.071 121.427 634.037 67.0885C634.033 62.3133 633.665 57.5453 632.937 52.8258C631.308 43.7145 627.719 35.0648 622.42 27.4726C617.121 19.8805 610.236 13.5266 602.241 8.84919C594.246 4.17174 585.331 1.28182 576.11 0.378858C566.889 -0.5241 557.581 0.581203 548.829 3.61872C528.208 11.3185 515.395 26.988 505.92 45.9485C475.038 107.769 444.173 169.595 413.325 231.428C412.495 233.061 411.576 234.675 410.69 236.282L409.672 235.793V229.82C409.672 174.025 409.672 118.228 409.672 62.4284C409.451 52.7057 407.01 43.1619 402.536 34.5243C398.063 25.8867 391.674 18.3836 383.856 12.587C376.039 6.7904 367.001 2.85303 357.429 1.07574C347.857 -0.701548 338.006 -0.272164 328.625 2.33113C306.445 8.96323 292.481 24.8401 282.516 44.8055C251.446 106.931 220.413 169.084 189.418 231.264C188.613 232.878 187.727 234.461 186.903 236.044C186.608 235.874 186.274 235.749 185.991 235.579V230.084C185.991 175.947 185.991 121.803 185.991 67.6535C185.972 63.4275 185.684 59.2073 185.13 55.0176C183.731 45.0245 179.976 35.5059 174.175 27.2453C168.375 18.9847 160.693 12.2182 151.763 7.50219C142.833 2.78621 132.91 0.255414 122.81 0.118581C112.71 -0.0182532 102.721 2.24251 93.6665 6.71484C77.8819 15.3993 65.382 29.0133 58.0816 45.4713C42.5087 76.6911 27.0675 108.024 11.4945 139.25C6.76662 148.746 1.82497 158.135 -3.00977 167.55V345.461C-2.42028 344.809 -1.89762 344.1 -1.45029 343.344C33.6523 271.953 68.732 200.566 103.789 129.183C104.757 127.229 105.807 125.345 106.825 123.417C107.121 123.549 107.454 123.719 107.737 123.851V129.905C107.737 182.212 107.755 234.515 107.793 286.814C107.797 292.333 108.11 297.848 108.73 303.332C109.967 312.137 113.021 320.59 117.699 328.155C122.377 335.72 128.577 342.232 135.906 347.278C143.235 352.325 151.533 355.795 160.274 357.471C169.016 359.146 178.012 358.989 186.69 357.01C209.87 351.082 224.638 335.318 234.948 314.819C264.326 256.361 293.588 197.853 322.734 139.294C325.582 133.642 328.349 127.92 331.14 122.243L332.241 122.482V128.215C332.241 183.483 332.257 238.738 332.291 293.98C332.305 297.835 332.629 301.683 333.259 305.486C335.018 315.952 339.371 325.811 345.922 334.166C352.472 342.52 361.011 349.104 370.761 353.318C380.511 357.532 391.162 359.241 401.742 358.29C412.323 357.339 422.497 353.757 431.337 347.873C444.497 338.283 454.876 325.377 461.415 310.473C491.764 249.603 522.117 188.744 552.475 127.895C553.28 126.256 554.192 124.673 555.053 123.065C555.456 123.229 555.833 123.386 556.235 123.524V130.068C556.235 184.578 556.235 239.096 556.235 293.622C556.08 304.102 558.504 314.46 563.294 323.784C568.084 333.109 575.094 341.116 583.707 347.101C592.32 353.086 602.274 356.866 612.692 358.109C623.11 359.352 633.674 358.019 643.455 354.228C661.536 346.252 675.941 331.758 683.793 313.638C710.241 260.707 736.646 207.752 763.01 154.775C763.483 153.791 763.87 152.768 764.166 151.717C767.869 144.375 771.629 136.883 775.42 129.107C776.382 127.154 777.433 125.276 778.451 123.336L779.362 123.775V129.83C779.362 182.166 779.381 234.467 779.419 286.733C779.423 292.254 779.736 297.77 780.356 303.257C781.595 312.061 784.651 320.512 789.33 328.076C794.008 335.639 800.208 342.15 807.536 347.196C814.864 352.241 823.162 355.712 831.902 357.389C840.643 359.065 849.637 358.911 858.315 356.935C881.489 351.013 896.257 335.23 906.568 314.743C935.945 256.29 965.207 197.781 994.354 139.219C997.202 133.566 999.968 127.845 1002.76 122.155L1003.86 122.406V128.14C1003.86 183.408 1003.88 238.658 1003.92 293.892C1003.93 297.749 1004.25 301.599 1004.89 305.404C1006.64 315.871 1010.99 325.732 1017.54 334.088C1024.09 342.444 1032.63 349.028 1042.38 353.242C1052.14 357.455 1062.79 359.163 1073.37 358.21C1083.95 357.257 1094.12 353.673 1102.96 347.784C1116.13 338.201 1126.51 325.297 1133.04 310.391C1163.39 249.521 1193.74 188.662 1224.1 127.814C1224.91 126.181 1225.82 124.598 1226.68 122.99C1227.08 123.147 1227.46 123.31 1227.86 123.442V129.987C1227.86 184.501 1227.86 239.021 1227.86 293.547C1227.7 304.027 1230.13 314.384 1234.92 323.709C1239.71 333.034 1246.72 341.04 1255.33 347.025C1263.95 353.009 1273.9 356.788 1284.32 358.028C1294.74 359.269 1305.3 357.934 1315.08 354.14C1333.16 346.167 1347.57 331.674 1355.42 313.556C1381.87 260.63 1408.28 207.675 1434.64 154.694C1437.32 149.311 1440.22 144.055 1443.01 138.735V4.01431C1426.03 11.2078 1412.27 24.3555 1404.31 40.981L1404.17 40.9619Z" fill="#9E2629"/>
</svg>