<svg xmlns="http://www.w3.org/2000/svg" width="79" height="31" viewBox="0 0 79 31" fill="none">
  <path fill-rule="evenodd" clip-rule="evenodd" d="M78.9963 5.83485C78.9777 5.00955 78.773 4.19945 78.3978 3.46631C78.0226 2.73316 77.4869 2.09633 76.8314 1.60437C76.1759 1.11241 75.4179 0.7783 74.6154 0.627539C73.8129 0.476777 72.987 0.513405 72.2005 0.734487C70.3397 1.29765 69.1699 2.64558 68.3333 4.33888C65.7264 9.61359 63.1241 14.89 60.5265 20.168C60.4592 20.3049 60.3851 20.4384 60.3141 20.5737L60.2366 20.5358C60.2366 20.5358 60.2366 10.8772 60.2332 6.28019C60.2315 5.92135 60.2078 5.56295 60.1621 5.20709C60.0447 4.35866 59.7299 3.55049 59.2434 2.84913C58.757 2.14777 58.1128 1.57326 57.364 1.17277C56.6152 0.772277 55.783 0.557278 54.936 0.545471C54.089 0.533664 53.2513 0.725346 52.4918 1.10481C51.095 1.82731 50.1903 3.01333 49.5086 4.39672C48.202 7.04789 43.6975 16.2921 43.3527 16.991C42.7639 18.1855 42.1735 19.3788 41.5814 20.571L41.5002 20.5585C41.5002 20.5585 41.5025 10.8456 41.4961 6.23377C41.4959 5.82801 41.4651 5.42285 41.4036 5.02188C41.2669 4.24839 40.9658 3.51407 40.5214 2.86955C40.0769 2.22503 39.4996 1.68565 38.8292 1.28854C38.1588 0.891422 37.4112 0.645987 36.6379 0.569237C35.8647 0.492488 35.0842 0.586223 34.3503 0.843941C32.6207 1.49723 31.5472 2.82735 30.7527 4.43775C28.1633 9.68534 25.5752 14.9339 22.9883 20.1833C22.9195 20.3224 22.8421 20.4582 22.7688 20.5955L22.683 20.5551C22.683 20.5551 22.6901 10.5725 22.6807 5.8356C22.6621 5.0103 22.4574 4.20019 22.0822 3.46705C21.707 2.7339 21.1713 2.09707 20.5158 1.60511C19.8603 1.11315 19.1025 0.779136 18.2999 0.628374C17.4974 0.477613 16.6714 0.514148 15.8849 0.735229C14.0241 1.29839 12.8541 2.64642 12.0178 4.33972C9.41179 9.6143 1.40976 25.7757 1.21725 26.2636C1.21236 26.2765 1.20863 26.2879 1.20412 26.3016C1.00318 26.7369 0.898854 27.2114 0.898438 27.6918C0.898438 28.5692 1.24305 29.4107 1.85652 30.0311C2.46998 30.6515 3.30203 31.0001 4.1696 31.0001C4.79027 30.9996 5.39798 30.8206 5.92182 30.484C6.44565 30.1473 6.86397 29.6669 7.12793 29.0988C7.437 28.5519 7.70364 27.8998 8.01872 27.2644C10.4826 22.3024 15.8492 11.3977 16.0842 10.9132L16.1759 10.9342V11.4217C16.1759 16.1116 16.1772 20.802 16.1797 25.4932C16.1808 25.8205 16.208 26.1472 16.2609 26.4701C16.4086 27.3584 16.7737 28.1952 17.3229 28.9044C17.8722 29.6135 18.5881 30.1724 19.4055 30.5302C20.2229 30.888 21.116 31.0333 22.0031 30.9528C22.8902 30.8724 23.7434 30.5687 24.4848 30.0696C25.6527 29.2756 26.3945 28.1387 27.0074 26.8937C29.5509 21.7272 32.0961 16.5612 34.6431 11.3958C34.7115 11.2574 34.7868 11.1228 34.859 10.9859C34.8917 10.9988 34.9244 11.0125 34.9575 11.0239V11.5803C34.9575 16.208 34.9504 20.8358 34.9575 25.4643C34.965 29.3601 38.7697 32.0386 42.271 30.6092C43.8761 29.9536 44.903 28.6855 45.6527 27.1637C47.8711 22.6694 53.0193 12.1582 53.3382 11.5012C53.4183 11.3361 53.5081 11.1752 53.5931 11.0125L53.6709 11.0505C53.6709 11.222 53.7018 25.8225 53.7525 26.2879C54.0909 29.3768 57.3053 31.6176 60.2866 30.8446C62.2302 30.3407 63.4694 29.003 64.3335 27.2629C66.797 22.3009 72.164 11.3962 72.3986 10.9117L72.4904 10.9326V11.4201C72.4904 16.1106 72.4866 27.4469 72.4874 27.4511C72.4814 27.534 72.475 27.6169 72.475 27.7005C72.475 28.5753 72.8185 29.4141 73.43 30.0327C74.0416 30.6513 74.871 30.9988 75.736 30.9989C76.6009 30.9988 77.4303 30.6513 78.0419 30.0327C78.6534 29.4141 78.997 28.5753 78.997 27.7005C78.997 27.6538 78.9921 27.6085 78.9902 27.5621C78.9948 27.5606 79.0057 10.5718 78.9963 5.83485Z" fill="#111"/>
</svg>