<svg xmlns="http://www.w3.org/2000/svg" width="60" height="24" viewBox="0 0 60 24" fill="none">
  <path fill-rule="evenodd" clip-rule="evenodd" d="M59.2497 4.55886C59.2357 3.94064 59.0824 3.33381 58.8013 2.78462C58.5203 2.23542 58.1189 1.75838 57.6279 1.38986C57.1369 1.02134 56.5691 0.771065 55.968 0.658132C55.3668 0.545198 54.7481 0.572636 54.159 0.738245C52.7651 1.1601 51.8888 2.16982 51.2621 3.43825C49.3093 7.38947 47.36 11.342 45.4142 15.2957C45.3637 15.3982 45.3083 15.4982 45.255 15.5996L45.197 15.5711C45.197 15.5711 45.197 8.33599 45.1945 4.89246C45.1932 4.62366 45.1754 4.35519 45.1412 4.08861C45.0533 3.45306 44.8174 2.84767 44.453 2.32229C44.0886 1.79691 43.6061 1.36656 43.0452 1.06656C42.4842 0.766554 41.8609 0.6055 41.2264 0.596656C40.5919 0.587811 39.9644 0.731398 39.3955 1.01565C38.3491 1.55686 37.6715 2.4453 37.1608 3.48157C36.1821 5.46753 32.8078 12.3922 32.5495 12.9158C32.1085 13.8106 31.6662 14.7045 31.2227 15.5976L31.1618 15.5882C31.1618 15.5882 31.1635 8.31232 31.1587 4.85769C31.1586 4.55374 31.1355 4.25024 31.0895 3.94988C30.987 3.37046 30.7615 2.82039 30.4286 2.33759C30.0957 1.85479 29.6632 1.45075 29.161 1.15328C28.6588 0.855803 28.0988 0.671951 27.5195 0.614459C26.9403 0.556967 26.3557 0.627182 25.8059 0.820236C24.5103 1.3096 23.7061 2.30598 23.111 3.51231C21.1713 7.44321 19.2326 11.3748 17.2948 15.3071C17.2433 15.4113 17.1853 15.513 17.1303 15.6158L17.0661 15.5856C17.0661 15.5856 17.0714 8.10777 17.0644 4.55942C17.0504 3.9412 16.8971 3.33436 16.6161 2.78517C16.335 2.23598 15.9337 1.75894 15.4427 1.39042C14.9517 1.0219 14.384 0.771691 13.7828 0.658758C13.1816 0.545824 12.5629 0.573192 11.9738 0.738802C10.5798 1.16066 9.70336 2.17045 9.07695 3.43887C7.1248 7.39 1.13058 19.4963 0.986374 19.8618C0.982713 19.8715 0.979921 19.88 0.976541 19.8902C0.826023 20.2163 0.74787 20.5718 0.747559 20.9316C0.747559 21.5889 1.0057 22.2192 1.46524 22.684C1.92478 23.1487 2.54806 23.4098 3.19795 23.4098C3.66288 23.4095 4.11811 23.2754 4.51051 23.0232C4.90291 22.771 5.21626 22.4111 5.41399 21.9856C5.64551 21.5759 5.84524 21.0874 6.08127 20.6115C7.92696 16.8945 11.947 8.7259 12.123 8.363L12.1917 8.37872V8.74389C12.1917 12.257 12.1927 15.7706 12.1946 19.2846C12.1954 19.5298 12.2157 19.7746 12.2554 20.0164C12.366 20.6819 12.6395 21.3087 13.0509 21.8399C13.4624 22.3711 13.9987 22.7898 14.611 23.0578C15.2233 23.3258 15.8922 23.4347 16.5568 23.3744C17.2213 23.3141 17.8604 23.0867 18.4158 22.7128C19.2906 22.118 19.8463 21.2664 20.3054 20.3338C22.2107 16.4636 24.1173 12.5939 26.0252 8.72448C26.0765 8.6208 26.1329 8.52 26.187 8.41745C26.2115 8.42714 26.236 8.43735 26.2608 8.4459V8.86267C26.2608 12.3293 26.2554 15.7959 26.2608 19.263C26.2664 22.1813 29.1164 24.1878 31.7392 23.117C32.9416 22.6259 33.7108 21.676 34.2724 20.536C35.9342 17.1694 39.7906 9.29563 40.0295 8.80342C40.0895 8.67979 40.1568 8.55926 40.2204 8.43734L40.2788 8.46585C40.2788 8.59432 40.3019 19.5314 40.3399 19.88C40.5934 22.1938 43.0012 23.8724 45.2345 23.2933C46.6904 22.9159 47.6187 21.9138 48.2659 20.6103C50.1113 16.8934 54.1317 8.72478 54.3074 8.36189L54.3762 8.37753V8.7427C54.3762 12.2563 54.3733 20.7482 54.3739 20.7513C54.3694 20.8134 54.3646 20.8755 54.3646 20.9382C54.3646 21.5934 54.6219 22.2218 55.08 22.6852C55.5381 23.1485 56.1595 23.4089 56.8074 23.409C57.4553 23.4089 58.0766 23.1485 58.5347 22.6852C58.9928 22.2218 59.2502 21.5934 59.2502 20.9382C59.2502 20.9031 59.2465 20.8692 59.2451 20.8345C59.2485 20.8333 59.2567 8.10721 59.2497 4.55886Z" fill="#E4E4E4"/>
</svg>