<svg xmlns="http://www.w3.org/2000/svg" width="123" height="16" viewBox="0 0 123 16" fill="none">
  <path fill-rule="evenodd" clip-rule="evenodd" d="M75.9712 12.6552H65.8203V0.606445H70.7122V8.52134H75.9712V12.6552ZM76.4382 12.6552V0.606445H81.3301V12.6552H76.4382ZM95.9954 0.606445H91.1127V5.59736L86.8817 0.606445H82.7424V12.6552H87.6343V7.66431L91.8653 12.6552H95.9954V0.606445ZM101.538 4.74034H97.1232V0.606445H107.926V4.74034L103.227 8.52134H108.118V10.4639L111.963 0.606445H117.415L122.114 12.6552H116.855L116.286 10.5883H113.092L112.523 12.6552H108.118H107.264H96.8387V8.52134L101.538 4.74034ZM114.689 4.90838L115.35 7.31982H114.028L114.689 4.90838ZM0.792729 4.1519L5.51832 9.77327L10.2439 4.1519V12.656H11.0366V2.81348H10.4055L5.51832 8.57899L0.631105 2.81348H0V12.656H0.792729V4.1519ZM18.6022 8.44172L15.6083 8.8604C14.9054 8.95192 14.3487 9.183 13.9382 9.55364C13.5277 9.92428 13.3225 10.3727 13.3225 10.8989C13.3225 11.4068 13.5611 11.8507 14.0382 12.2305C14.5154 12.6057 15.1157 12.7933 15.8392 12.7933C16.1984 12.7933 16.537 12.7498 16.8551 12.6629C17.1784 12.576 17.4375 12.4753 17.6325 12.3609C17.8274 12.2465 18.007 12.1184 18.1712 11.9765C18.3405 11.8301 18.4483 11.7294 18.4945 11.6745C18.5458 11.615 18.5817 11.567 18.6022 11.5304V12.656H19.3103V8.44172C19.3103 7.68213 19.0383 7.0461 18.4945 6.53361C17.9557 6.02112 17.281 5.76487 16.4703 5.76487C16.1573 5.76487 15.8469 5.80834 15.539 5.89528C15.2363 5.97764 14.9875 6.07374 14.7925 6.18356C14.5975 6.2888 14.4128 6.41006 14.2383 6.54733C14.069 6.68461 13.9587 6.78299 13.9074 6.84247C13.8612 6.89738 13.8227 6.93856 13.792 6.96602L14.2691 7.38471L14.5 7.14448C14.6693 6.97517 14.9362 6.81044 15.3004 6.65029C15.6699 6.48556 16.0598 6.40319 16.4703 6.40319C17.0809 6.40319 17.5888 6.59767 17.9942 6.98661C18.3995 7.37555 18.6022 7.86059 18.6022 8.44172ZM17.8095 11.4617C17.2861 11.9285 16.6294 12.1618 15.8392 12.1618C15.3158 12.1618 14.8823 12.036 14.5385 11.7843C14.1999 11.5327 14.0305 11.2375 14.0305 10.8989C14.0305 10.1302 14.6078 9.66117 15.7622 9.49186L18.6022 9.07318V9.70464C18.6022 10.4093 18.338 10.995 17.8095 11.4617ZM26.9374 11.3245C27.5275 10.7616 27.8225 10.0821 27.8225 9.28595C27.8225 8.48519 27.5275 7.80568 26.9374 7.24743C26.3473 6.68461 25.6701 6.40319 24.9056 6.40319C24.1821 6.40319 23.5279 6.68689 22.943 7.25429C22.358 7.81712 22.0656 8.49434 22.0656 9.28595C22.0656 10.073 22.358 10.7502 22.943 11.3176C23.5279 11.8804 24.1821 12.1618 24.9056 12.1618C25.6752 12.1618 26.3525 11.8827 26.9374 11.3245ZM27.8225 7.24743V2.81348H28.5306V12.656H27.8225V11.3176C27.802 11.3542 27.7635 11.4068 27.707 11.4755C27.6557 11.5395 27.5403 11.6585 27.3607 11.8324C27.1863 12.0063 26.9938 12.1573 26.7835 12.2854C26.5731 12.4089 26.2986 12.5256 25.96 12.6354C25.6265 12.7407 25.275 12.7933 24.9056 12.7933C23.982 12.7933 23.1585 12.4501 22.435 11.7637C21.7167 11.0728 21.3575 10.2469 21.3575 9.28595C21.3575 8.32046 21.7167 7.49224 22.435 6.80129C23.1585 6.11034 23.982 5.76487 24.9056 5.76487C25.275 5.76487 25.6265 5.81749 25.96 5.92274C26.2986 6.02798 26.5757 6.15153 26.7912 6.29338C27.0067 6.43065 27.194 6.5725 27.353 6.71893C27.5172 6.86078 27.6378 6.98432 27.7147 7.08957L27.8225 7.24743ZM31.4398 9.5605H37.8278V9.27909C37.8278 8.24953 37.4917 7.40758 36.8196 6.75324C36.1474 6.09433 35.3265 5.76487 34.3567 5.76487C33.3921 5.76487 32.5455 6.11034 31.8169 6.80129C31.0935 7.48766 30.7317 8.31359 30.7317 9.27909C30.7317 10.2537 31.0986 11.0842 31.8323 11.7706C32.566 12.4524 33.4332 12.7933 34.4337 12.7933C34.8031 12.7933 35.1597 12.743 35.5035 12.6423C35.8524 12.5371 36.132 12.425 36.3424 12.306C36.5528 12.1824 36.7529 12.0429 36.9427 11.8873C37.1326 11.7271 37.2532 11.615 37.3045 11.551C37.3609 11.4823 37.4045 11.4297 37.4353 11.3931L36.9581 10.9813L36.8658 11.1117C36.7888 11.1849 36.6785 11.281 36.5348 11.4C36.3963 11.5144 36.2321 11.6311 36.0423 11.75C35.8524 11.869 35.6113 11.9674 35.3188 12.0452C35.0315 12.123 34.7364 12.1618 34.4337 12.1618C33.6487 12.1618 32.9637 11.9056 32.3788 11.3931C31.7938 10.876 31.4809 10.2652 31.4398 9.5605ZM32.3711 7.16507C32.9509 6.65715 33.6128 6.40319 34.3567 6.40319C35.111 6.40319 35.7498 6.64114 36.2731 7.11702C36.7965 7.5929 37.0787 8.19691 37.1197 8.92904H31.4398C31.486 8.2564 31.7964 7.6684 32.3711 7.16507ZM44.5237 7.24743C43.9388 7.80568 43.6463 8.48519 43.6463 9.28595C43.6463 10.0821 43.9413 10.7616 44.5314 11.3245C45.1214 11.8827 45.7987 12.1618 46.5632 12.1618C47.2867 12.1618 47.9409 11.8804 48.5258 11.3176C49.1107 10.7502 49.4032 10.073 49.4032 9.28595C49.4032 8.49434 49.1107 7.81712 48.5258 7.25429C47.9409 6.68689 47.2867 6.40319 46.5632 6.40319C45.7936 6.40319 45.1137 6.68461 44.5237 7.24743ZM43.6463 2.81348V7.24743C43.6668 7.21082 43.7027 7.16049 43.754 7.09643C43.8105 7.02779 43.9259 6.90653 44.1004 6.73265C44.28 6.55877 44.4749 6.41006 44.6853 6.28651C44.8957 6.15839 45.1676 6.03942 45.5011 5.9296C45.8398 5.81978 46.1938 5.76487 46.5632 5.76487C47.4868 5.76487 48.3078 6.11034 49.0261 6.80129C49.7495 7.49224 50.1113 8.32046 50.1113 9.28595C50.1113 10.2469 49.7495 11.0728 49.0261 11.7637C48.3078 12.4501 47.4868 12.7933 46.5632 12.7933C46.1938 12.7933 45.8398 12.743 45.5011 12.6423C45.1676 12.5371 44.8931 12.4158 44.6776 12.2785C44.4621 12.1367 44.2723 11.9925 44.1081 11.8461C43.949 11.6997 43.8336 11.5761 43.7617 11.4755L43.6463 11.3176V12.656H42.9382V2.81348H43.6463ZM54.2827 12.656L53.7286 13.919C53.5695 14.285 53.3797 14.5527 53.159 14.722C52.9436 14.8913 52.6614 14.976 52.3124 14.976C52.0508 14.9714 51.8147 14.9233 51.6044 14.8318V15.4702L51.6967 15.4976C51.748 15.5251 51.8327 15.5502 51.9507 15.5731C52.0739 15.596 52.1944 15.6074 52.3124 15.6074C52.8615 15.6074 53.2976 15.477 53.6208 15.2162C53.9492 14.9599 54.2494 14.5275 54.5213 13.919L58.1463 5.90901H57.3536L54.6752 11.8118L51.9969 5.90901H51.2119L54.2827 12.656Z" fill="#111111"/>
</svg>