<svg xmlns="http://www.w3.org/2000/svg" width="147" height="57" viewBox="0 0 147 57" fill="none">
  <path fill-rule="evenodd" clip-rule="evenodd" d="M146.127 9.91388C146.093 8.36967 145.71 6.85391 145.008 5.48213C144.306 4.11036 143.303 2.91879 142.077 1.9983C140.85 1.07781 139.432 0.452658 137.93 0.170571C136.429 -0.111516 134.883 -0.0429815 133.412 0.370679C129.93 1.42441 127.741 3.94649 126.176 7.11479C121.298 16.9842 116.429 26.8568 111.569 36.7324C111.443 36.9886 111.304 37.2382 111.171 37.4915L111.026 37.4205C111.026 37.4205 111.026 19.3484 111.02 10.7471C111.017 10.0757 110.973 9.40513 110.887 8.73928C110.667 7.15179 110.078 5.63964 109.168 4.32734C108.258 3.01504 107.053 1.9401 105.652 1.19074C104.25 0.441388 102.693 0.0391073 101.109 0.0170154C99.5238 -0.00507654 97.9564 0.353576 96.5354 1.06359C93.9218 2.41543 92.229 4.63458 90.9535 7.22301C88.5088 12.1836 80.0806 29.4801 79.4354 30.7879C78.3337 33.0229 77.229 35.2557 76.1212 37.4865L75.9692 37.463C75.9692 37.463 75.9734 19.2893 75.9614 10.6603C75.9612 9.90108 75.9035 9.14299 75.7885 8.39274C75.5326 6.94547 74.9693 5.5715 74.1377 4.36555C73.3061 3.15961 72.2259 2.15039 70.9715 1.40735C69.7171 0.664317 68.3182 0.205088 66.8715 0.061484C65.4247 -0.0821205 63.9644 0.0932652 62.5911 0.575478C59.3549 1.79783 57.3462 4.28659 55.8597 7.29978C51.0147 17.1184 46.1722 26.9389 41.332 36.7609C41.2032 37.0213 41.0583 37.2753 40.9211 37.5322L40.7607 37.4566C40.7607 37.4566 40.774 18.7784 40.7564 9.91527C40.7216 8.37106 40.3385 6.8553 39.6366 5.48352C38.9346 4.11175 37.9321 2.92018 36.7057 1.99969C35.4792 1.0792 34.0612 0.454221 32.5596 0.172134C31.058 -0.109953 29.5125 -0.0415918 28.041 0.372069C24.5592 1.4258 22.3699 3.94806 20.8053 7.11635C15.9292 16.9855 0.956721 47.2249 0.596518 48.1377C0.587372 48.1619 0.580398 48.1832 0.571956 48.2088C0.195989 49.0233 0.000778591 49.9111 0 50.81C0 52.4517 0.644799 54.0262 1.79264 55.187C2.94049 56.3479 4.49732 57 6.12062 57C7.28193 56.9992 8.419 56.6643 9.39914 56.0344C10.3793 55.4044 11.162 54.5055 11.6559 53.4425C12.2342 52.4194 12.7331 51.1992 13.3226 50.0103C17.9328 40.726 27.9741 20.3223 28.4138 19.4159L28.5854 19.4552V20.3673C28.5854 29.1424 28.5878 37.9187 28.5925 46.6962C28.5945 47.3086 28.6453 47.9199 28.7445 48.5241C29.0208 50.1862 29.7039 51.7519 30.7316 53.0788C31.7592 54.4056 33.0988 55.4514 34.6282 56.1209C36.1577 56.7903 37.8286 57.0621 39.4885 56.9116C41.1484 56.7611 42.7447 56.1929 44.132 55.259C46.3171 53.7733 47.7052 51.6461 48.8519 49.3167C53.611 39.6498 58.3733 29.9838 63.139 20.3188C63.267 20.0598 63.4079 19.8081 63.5429 19.5519C63.6041 19.5761 63.6653 19.6016 63.7272 19.623V20.664C63.7272 29.3229 63.7139 37.9818 63.7272 46.6421C63.7413 53.9314 70.8602 58.9432 77.4114 56.2687C80.4148 55.0421 82.336 52.6692 83.7388 49.8218C87.8896 41.4126 97.5224 21.7454 98.119 20.516C98.2688 20.2072 98.437 19.9061 98.5959 19.6016L98.7416 19.6728C98.7416 19.9937 98.7993 47.3124 98.8943 48.1832C99.5275 53.9627 105.542 58.1555 111.12 56.709C114.757 55.7663 117.075 53.2633 118.692 50.0075C123.302 40.7232 133.344 20.3196 133.783 19.4131L133.954 19.4522V20.3643C133.954 29.1406 133.947 50.3518 133.949 50.3596C133.937 50.5147 133.925 50.6698 133.925 50.8263C133.925 52.463 134.568 54.0326 135.712 55.19C136.857 56.3474 138.409 56.9977 140.027 56.9979C141.645 56.9977 143.197 56.3474 144.342 55.19C145.486 54.0326 146.129 52.463 146.129 50.8263C146.129 50.7388 146.12 50.6541 146.116 50.5673C146.124 50.5645 146.145 18.777 146.127 9.91388Z" fill="#9E2629"/>
</svg>