<svg xmlns="http://www.w3.org/2000/svg" width="158" height="34" viewBox="0 0 158 34" fill="none">
  <g clip-path="url(#clip0_258_189)">
    <path fill-rule="evenodd" clip-rule="evenodd" d="M37.3454 14.6434H28.8081C28.6082 14.6424 28.4169 14.5636 28.2755 14.4241C28.1342 14.2845 28.0544 14.0956 28.0534 13.8983V8.41676C28.0504 8.32582 28.0672 8.2353 28.1026 8.15131C28.138 8.06731 28.1913 7.99179 28.2588 7.92983C28.3263 7.86788 28.4065 7.82093 28.4939 7.79216C28.5813 7.76338 28.674 7.75345 28.7656 7.76302H37.3462C39.3258 7.76302 41.4563 8.76123 41.4563 11.1568C41.4563 13.5523 39.325 14.6449 37.3454 14.6449V14.6434ZM0 4.26143V22.6949V29.4772V29.5019V30.0343C0.0763583 30.9522 0.509093 31.8053 1.20774 32.4154C1.90639 33.0256 2.81686 33.3455 3.74884 33.3083C4.68082 33.271 5.56216 32.8796 6.2086 32.2157C6.85505 31.5518 7.21655 30.667 7.21756 29.746C7.21756 29.6959 7.21227 29.6465 7.20999 29.5963L7.21833 8.28571C7.21873 8.11994 7.28572 7.96109 7.40459 7.84401C7.52346 7.72693 7.6845 7.66118 7.8524 7.66118H17.5001C18.1788 7.69634 18.8535 7.53769 19.4433 7.20423C20.0331 6.87076 20.5132 6.37659 20.826 5.78084C20.826 8.74251 20.8184 16.8981 20.8192 22.8365H20.8343C20.8343 26.3658 20.8343 29.2226 20.8343 29.2249C20.8275 29.3147 20.8207 29.4046 20.8207 29.4959C20.8207 32.0937 22.4468 33.3225 24.4446 33.3225C26.4424 33.3225 28.0633 31.9971 28.0542 29.4959C28.0542 29.4465 28.0489 29.3986 28.0466 29.3462V29.3379C28.0466 29.2219 28.0466 26.0782 28.0526 22.0607V22.0225C28.0524 21.9401 28.0687 21.8585 28.1005 21.7823C28.1322 21.7062 28.1789 21.6369 28.2378 21.5786C28.2967 21.5202 28.3666 21.4739 28.4437 21.4423C28.5207 21.4106 28.6033 21.3943 28.6867 21.3942C28.6867 21.3942 41.0103 21.4062 41.1483 21.4024C44.8284 21.2909 46.3469 19.0975 46.7716 18.1944C46.8171 18.0986 46.9726 18.1607 46.981 18.2693C47.2906 22.2182 49.0557 25.9181 51.9421 28.6687C54.8284 31.4194 58.6359 33.0301 62.6441 33.196C62.8769 33.2057 72.4882 33.196 73.5455 33.196H73.5546C77.8612 32.9226 78.9276 30.1399 79.2765 29.4517C82.0069 24.0796 87.9617 12.2726 88.2218 11.7499L88.3235 11.7716V12.3003C88.3235 17.3789 88.3247 22.4573 88.3273 27.5355C88.3287 27.89 88.3591 28.2439 88.4183 28.5936C88.5825 29.5551 88.9877 30.4608 89.5971 31.2281C90.2064 31.9955 91.0004 32.6003 91.9069 32.9873C92.8134 33.3743 93.8035 33.5313 94.7872 33.4441C95.7708 33.3568 96.7168 33.028 97.5388 32.4876C98.7625 31.6055 99.7279 30.4194 100.337 29.0496C103.157 23.4548 105.98 17.8612 108.805 12.2688V12.2621L109.151 12.3459V12.4703C109.151 17.4805 109.151 22.4913 109.151 27.5025C109.139 29.0692 109.753 30.5773 110.861 31.6991C111.969 32.8209 113.48 33.4657 115.067 33.4933H115.083C115.83 33.4928 116.571 33.3494 117.263 33.0709C118.945 32.3387 120.285 31.0062 121.014 29.3402C123.474 24.4727 129.184 13.094 129.538 12.3826C129.627 12.2037 129.726 12.0292 129.821 11.8532L129.906 11.8936C129.906 12.0794 129.941 27.8874 129.997 28.3906C130.113 29.1996 130.397 29.9761 130.832 30.6711C131.267 31.3661 131.843 31.9644 132.524 32.4281C133.205 32.8919 133.977 33.211 134.789 33.3654C135.602 33.5197 136.438 33.5059 137.245 33.3248C138.239 33.0514 139.159 32.5609 139.935 31.8897C140.712 31.2184 141.326 30.3835 141.732 29.4465C144.463 24.0743 150.417 12.2673 150.677 11.7446L150.779 11.7663C150.779 11.7663 150.762 29.8314 150.762 29.922C150.762 30.8691 151.143 31.7773 151.821 32.447C152.5 33.1167 153.419 33.4929 154.379 33.4929C155.338 33.4929 156.258 33.1167 156.936 32.447C157.614 31.7773 157.995 30.8691 157.995 29.922C157.995 29.8726 157.988 29.7723 157.988 29.7685L157.992 6.24736C157.972 5.35386 157.745 4.47682 157.328 3.68311C156.912 2.8894 156.318 2.19997 155.591 1.66737C154.864 1.13477 154.024 0.77307 153.134 0.609826C152.244 0.446582 151.328 0.48611 150.456 0.725399C149.5 1.03682 148.624 1.54605 147.884 2.21902C147.144 2.89199 146.559 3.71317 146.166 4.62762C143.276 10.3388 140.39 16.052 137.508 21.7671C137.433 21.9169 137.351 22.0599 137.273 22.2059L137.186 22.164C137.186 22.164 137.186 11.7057 137.182 6.72887C137.182 6.34053 137.156 5.95261 137.107 5.56741C136.976 4.64868 136.627 3.77358 136.088 3.01411C135.548 2.25464 134.834 1.63251 134.003 1.19888C133.172 0.765257 132.249 0.532536 131.31 0.519871C130.37 0.507206 129.441 0.714955 128.599 1.12603C127.13 1.92364 125.968 3.17583 125.29 4.68977C123.841 7.56009 118.843 17.5699 118.464 18.3262C117.811 19.6197 117.157 20.9117 116.5 22.2022L116.409 22.1887C116.409 22.1887 116.409 11.672 116.406 6.6787C116.405 6.23942 116.371 5.80082 116.303 5.36672C116.151 4.52921 115.817 3.73413 115.324 3.03626C114.831 2.33839 114.191 1.75433 113.447 1.32434C112.704 0.894352 111.875 0.62865 111.017 0.545546C110.159 0.462443 109.294 0.563911 108.48 0.842965C106.683 1.57186 105.249 2.97107 104.49 4.73695C101.618 10.4182 98.7471 16.1006 95.8785 21.7843C95.8027 21.9341 95.7162 22.0839 95.6351 22.2337L95.5403 22.1902C95.5403 22.1902 95.5478 11.3822 95.5403 6.2526C95.5196 5.35913 95.2926 4.4821 94.8766 3.68839C94.4605 2.89467 93.8664 2.20523 93.1395 1.67262C92.4126 1.14 91.5722 0.778281 90.6822 0.615036C89.7922 0.451792 88.8763 0.49133 88.0041 0.730638C87.0488 1.04193 86.1719 1.55111 85.4321 2.22408C84.6923 2.89706 84.1066 3.71831 83.7143 4.63286C81.4138 9.17834 75.5934 20.6529 73.0957 25.6327C73.0247 25.823 72.9102 25.9946 72.761 26.1341C72.6118 26.2736 72.432 26.3773 72.2356 26.4369C71.9322 26.523 66.1231 26.6526 66.1231 26.6526C66.1231 26.6526 56.9009 27.2247 54.3146 20.6356C54.3071 20.6175 54.3043 20.5979 54.3063 20.5785C54.3084 20.559 54.3152 20.5404 54.3262 20.5241C54.3371 20.5079 54.352 20.4945 54.3694 20.4853C54.3868 20.476 54.4063 20.471 54.4261 20.4709C60.1335 20.4709 68.4038 20.4874 68.4949 20.4874C69.4321 20.4874 70.3309 20.1198 70.9936 19.4655C71.6562 18.8112 72.0286 17.9238 72.0286 16.9985C72.0286 16.0732 71.6562 15.1858 70.9936 14.5315C70.3309 13.8772 69.4321 13.5096 68.4949 13.5096C68.444 13.5096 61.068 13.5096 54.4336 13.5096C54.4139 13.5094 54.3944 13.5044 54.377 13.4951C54.3596 13.4858 54.3447 13.4725 54.3336 13.4564C54.3225 13.4402 54.3155 13.4216 54.3133 13.4022C54.311 13.3828 54.3135 13.3631 54.3206 13.3449C56.8456 6.66073 64.2785 7.75179 66.0958 7.75254C70.1916 7.75254 73.971 7.76751 74.0597 7.76751C74.9969 7.76751 75.8957 7.39994 76.5584 6.74565C77.2211 6.09137 77.5934 5.20396 77.5934 4.27866C77.5934 3.35336 77.2211 2.46595 76.5584 1.81166C75.8957 1.15738 74.9969 0.789798 74.0597 0.789798C74.0104 0.789798 73.908 0.79654 73.908 0.79654C73.7662 0.79654 63.3798 0.789049 63.3494 0.789049H63.2637C60.4852 0.800715 57.7554 1.50945 55.3305 2.8487C52.9056 4.18794 50.8653 6.11374 49.4012 8.44522C49.3889 8.46509 49.3709 8.48093 49.3495 8.49075C49.3281 8.50057 49.3042 8.50393 49.2809 8.50041C49.2576 8.49689 49.2358 8.48665 49.2184 8.47097C49.2009 8.45529 49.1885 8.43487 49.1828 8.41227C48.5966 6.20808 47.2808 4.26065 45.4448 2.87962C43.6087 1.4986 41.3577 0.763268 39.0497 0.790546H24.4112C23.6904 0.80448 22.9903 1.0306 22.4004 1.43991C21.8106 1.84923 21.358 2.4231 21.1005 3.088C20.9251 2.41299 20.519 1.81847 19.9509 1.40492C19.3828 0.991365 18.6875 0.784139 17.9825 0.818255C17.6488 0.818255 16.1781 0.825744 15.8292 0.818255H4.01306C3.0414 0.836535 2.10714 1.19138 1.37359 1.82076C0.640037 2.45014 0.153852 3.31403 0 4.26143Z" fill="#111111"/>
  </g>
  <defs>
    <clipPath id="clip0_258_189">
      <rect width="158" height="33" fill="white" transform="translate(0 0.5)"/>
    </clipPath>
  </defs>
</svg>