<svg xmlns="http://www.w3.org/2000/svg" width="94" height="94" viewBox="0 0 94 94" fill="none">
  <g clip-path="url(#clip0_443_1979)">
    <path d="M54.1004 72.2999H62.8004C66.4004 72.2999 70.6004 71.2999 72.9004 68.1999C75.3004 64.9999 75.4004 60.2999 75.4004 55.0999C75.4004 49.9999 75.6004 44.5999 73.2004 41.3999C70.9004 38.2999 67.4004 36.6999 63.9004 36.6999H58.8004V29.2999H70.0004C71.0004 29.2999 72.3004 28.6999 73.1004 27.6999C73.1004 27.6999 74.0004 26.5999 74.0004 25.2999C74.0004 23.9999 73.7004 23.4999 73.3004 22.7999C72.6004 21.5999 71.0004 20.8999 70.0004 20.8999H54.1004C52.9004 20.8999 52.0004 21.3999 51.4004 22.4999C50.7004 23.6999 50.4004 24.8999 50.4004 26.0999V66.6999C50.4004 68.3999 50.7004 69.7999 51.4004 70.7999C52.0004 71.7999 53.0004 72.2999 54.1004 72.2999ZM58.8004 45.1999H62.7004C64.2004 45.1999 66.7004 45.2999 66.7004 49.5999V55.2999V60.7999C66.5004 63.5999 64.2004 63.9999 62.7004 63.9999L58.8004 63.8999V45.1999Z" fill="white"/>
    <path d="M24.6 72.6C25.8 72.6 27.3 72.1 28 71C28.7 70 28.9 69.2 28.9 67.5V55H33.8C35.5 55 37.2 54.6 38.8 53.8C41.2 52.5 43.2 50.5 44.6 47.7C46 44.9 46.7 41.7 46.7 38C46.7 32.9 45.5 28.8 43 25.6C40.6 22.5 37.5 21 33.6 21H24.5C23.3 21 22.3 21.5 21.6 22.5C20.9 23.5 20.5 24.9 20.5 26.6V67.6C20.5 69.2 20.8 70 21.4 71.1C22 72.1 23.4 72.6 24.6 72.6ZM28.9 29.5H33.3C34.9 29.5 36.1 31.1 37.1 32.5C38.1 33.9 38.6 35.7 38.6 38C38.6 40.2 38.1 42.1 37.1 43.5C36.1 44.9 34.9 46.6 33.3 46.6H28.9V29.5Z" fill="white"/>
    <path d="M46.9004 51.8999V50.3999C46.6004 50.8999 46.2004 51.3999 45.9004 51.8999C46.2004 51.8999 46.6004 51.8999 46.9004 51.8999Z" fill="white"/>
    <path d="M1.59922 54.9C3.29922 54.1 4.89922 53.3 6.59922 52.5C9.09922 51.3 11.5993 51.3999 14.0993 52.5999C15.0993 53.0999 15.9993 53.5999 16.8993 54.0999V50.2999C16.7993 50.2999 16.7993 50.2 16.6993 50.2C14.7993 48.9 12.4992 48.3 9.99922 48.2C9.69922 48.2 9.29922 48.2999 8.79922 48.2999C6.29922 48.6999 4.09922 49.9 1.79922 51C0.899218 51.4 0.399219 51.7 0.199219 52C0.299219 52.9 0.399221 53.8999 0.599221 54.7999C0.899221 55.0999 1.19922 55.1 1.59922 54.9Z" fill="white"/>
    <path d="M43 55C44 55.3 45 55.5 46.1 55.5C46.4 55.5 46.7 55.5 46.9 55.5V51.9C46.6 51.9 46.2 51.9 45.9 51.9C45.1 53.1 44.1 54.1 43 55Z" fill="white"/>
    <path d="M86.2991 49.0999C83.6991 48.0999 81.1992 47.9999 78.6992 48.7999C78.7992 49.9999 78.7991 51.0999 78.7991 52.2999C81.0991 51.2999 83.4991 51.3999 85.8991 52.4999C87.4991 53.2999 88.9992 54.0999 90.6992 54.6999C91.5992 55.0999 92.1991 55.1999 92.5991 55.1999C92.7991 54.0999 92.9991 52.9999 93.0991 51.8999C90.5991 51.3999 88.5991 49.9999 86.2991 49.0999Z" fill="white"/>
    <path d="M87.3004 55.7C84.5004 54.3 81.6004 54.1 78.9004 55V55.1C78.9004 56.3 78.9004 57.4 78.9004 58.6C81.1004 57.7 83.3004 57.6 85.5004 58.6C86.8004 59.2 88.2004 59.9 89.5004 60.5C90.3004 60.9 90.8004 61.1 91.1004 61.1C91.4004 60.1 91.7004 59 92.0004 58C91.9004 57.9 91.8004 57.9 91.7004 57.8C90.2004 57.2 88.7004 56.4 87.3004 55.7Z" fill="white"/>
    <path d="M3.89961 60.0999C4.99961 59.5999 5.99961 59.0999 6.99961 58.5999C9.19961 57.5999 11.3996 57.6999 13.5996 58.6999C14.6996 59.1999 15.7996 59.7999 16.8996 60.3999V56.5999C16.3996 56.3999 15.9996 56.0999 15.4996 55.8999C12.5996 54.4999 9.59961 54.0999 6.39961 55.2999C4.79961 55.8999 3.2996 56.6999 1.6996 57.4999C1.4996 57.5999 1.29961 57.6999 1.09961 57.8999C1.29961 58.8999 1.59961 59.7999 1.89961 60.7999C2.59961 61.0999 3.29961 60.2999 3.89961 60.0999Z" fill="white"/>
    <path d="M46.9004 61.7V58.2C45.2004 58.3 43.6004 58 41.9004 57.1C41.5004 56.9 41.1004 56.7 40.7004 56.5C40.6004 56.6 40.4004 56.7 40.3004 56.7C38.9004 57.4 37.4004 57.9 35.9004 58.1C37.0004 58.4 38.1004 58.8 39.2004 59.5C40.7004 60.4 42.2004 61.1 44.0004 61.4C45.0004 61.8 46.0004 61.8 46.9004 61.7Z" fill="white"/>
    <path d="M46.9008 64.3999C44.6008 64.5999 42.2008 63.8999 39.8008 62.4999C37.3008 60.9999 34.8008 60.4999 32.3008 60.7999V64.2999C33.6008 63.9999 35.0008 64.0999 36.3008 64.5999C37.3008 64.9999 38.3008 65.4999 39.3008 65.9999C41.4008 67.0999 43.5008 67.9999 46.0008 68.0999C46.3008 68.0999 46.6008 68.0999 46.9008 68.0999C46.9008 67.6999 46.8008 67.2999 46.8008 66.7999V64.3999H46.9008Z" fill="white"/>
    <path d="M78.6 61.2C78.5 62.5 78.3 63.8 78 65.1C81.1 63.7 84.2 63.8 87.3 65.7C87.6 65.9 88 66 88.3 66.2C88.5 66.3 88.7 66.4 88.9 66.5C89.4 65.5 89.8 64.5 90.2 63.5C90.1 63.4 90.1 63.4 90 63.3C86.3 61.1 82.5 60 78.6 61.2Z" fill="white"/>
    <path d="M6.00039 65.2001C8.90039 63.7001 11.8004 63.7001 14.7004 65.3001C15.4004 65.7001 16.2004 66.1001 16.9004 66.5001V62.7001C16.8004 62.6001 16.7004 62.6001 16.6004 62.5001C14.7004 61.2001 12.5004 60.6001 10.1004 60.6001C7.60039 60.7001 5.50039 61.6001 3.30039 62.7001C3.10039 62.8001 2.90039 63.0001 2.90039 63.1001C3.20039 64.0001 3.60039 64.9001 4.00039 65.7001C4.50039 66.0001 5.00039 65.7001 6.00039 65.2001Z" fill="white"/>
    <path d="M42.0008 70.2001C41.1008 69.7001 40.2008 69.3001 39.3008 68.9001C36.9008 67.7001 34.6008 67.2001 32.3008 67.5001V67.6001C32.3008 69.0001 32.2008 70.0001 31.8008 71.0001C34.1008 70.5001 36.4008 70.9001 38.7008 72.3001C39.5008 72.8001 40.4008 73.2001 41.3008 73.6001C42.8008 74.3001 44.4008 74.8001 45.8008 74.6001C47.5008 74.6001 48.6008 74.5001 49.8008 74.2001C49.4008 73.8001 49.0008 73.4001 48.6008 72.8001C48.3008 72.3001 48.0008 71.7001 47.8008 71.1001C45.8008 71.4001 43.9008 71.2001 42.0008 70.2001Z" fill="white"/>
    <path d="M77.7004 68.2C77.4004 68.3 77.0004 68.5 76.7004 68.6C76.4004 69.2 76.0004 69.7 75.6004 70.3C74.1004 72.3 71.9004 73.7 69.4004 74.7C71.2004 74.9 73.0004 74.5 74.8004 73.5C76.0004 72.9 77.2004 72.2 78.4004 71.6C80.6004 70.6 82.9004 70.3 85.1004 71.5C85.5004 71.7 85.8004 71.8 86.1004 71.8C86.7004 70.9 87.2004 70 87.8004 69C87.7004 68.9 87.6004 68.8 87.4004 68.8C84.2004 67.2 81.0004 66.9 77.7004 68.2Z" fill="white"/>
    <path d="M7.90039 71.1C9.80039 70.3 11.8004 70.7 13.6004 71.6C14.7004 72.1 15.8004 72.7 16.8004 73.3C17.8004 73.9 18.9004 74.3 19.9004 74.5C19.3004 74.1 18.8004 73.5 18.4004 73C17.7004 71.9 17.3004 70.9 17.1004 69.8C16.9004 69.7 16.6004 69.5 16.4004 69.4C13.6004 67.6 10.3004 67 7.00039 68C6.00039 68.3 5.50039 68.5 5.40039 68.8C5.90039 69.7 6.30039 70.5 6.90039 71.4C7.10039 71.3 7.50039 71.3 7.90039 71.1Z" fill="white"/>
    <path d="M17.6004 80C20.7004 81.6 23.7004 81.5 26.8004 79.8C27.5004 79.4 28.3004 79 29.0004 78.6C32.2004 76.7 35.4004 76.7 38.7004 78.6C39.0004 78.8 39.4004 79 39.7004 79.2C41.6004 80.1 43.5004 80.9 45.7004 81C48.5004 81.1 50.9004 80.3 53.2004 78.9C56.9004 76.7 60.5004 76.5 64.1004 78.9C64.5004 79.2 65.0004 79.3 65.4004 79.6C68.7004 81.5 72.0004 81.6 75.3004 79.7C76.1004 79.3 76.8004 78.8 77.6004 78.4C78.7004 77.8 79.9004 77.2 81.2004 77.2C81.5004 77.2 81.8004 77.2 82.1004 77.1C82.9004 76.1 83.7004 75.1 84.5004 74.1C84.3004 74 84.1004 74 83.9004 73.9C81.6004 73.6 79.4004 73.9 77.2004 74.9C76.0004 75.5 74.8004 76.1 73.6004 76.8C71.5004 78 69.3004 78 67.2004 76.7C66.5004 76.3 65.8004 75.9 65.0004 75.5C64.3004 75.6 63.6004 75.6 62.9004 75.6H54.2004C53.7004 75.6 53.1004 75.5 52.6004 75.4C51.8004 75.8 51.1004 76.1 50.3004 76.5C47.6004 77.8 44.9004 77.8 42.2004 76.4C41.0004 75.8 39.8004 75.2 38.6004 74.7C35.4004 73.3 32.3004 73.2 29.1004 74.6C27.8004 75.2 26.5004 75.9 25.3004 76.6C23.1004 77.8 21.0004 77.8 18.8004 76.6C17.7004 75.9 16.5004 75.3 15.3004 74.8C13.8004 74.1 12.2004 73.6 10.6004 73.7C10.2004 73.7 9.70039 73.7 9.30039 73.7C9.10039 73.7 9.00039 73.8 8.90039 73.9C9.70039 75 10.5004 76 11.3004 77C13.5004 77.7 15.6004 78.9 17.6004 80Z" fill="white"/>
    <path d="M73.7004 83.1999C71.5004 84.4999 69.3004 84.5 67.1004 83.3C66.0004 82.7 64.9004 82.0999 63.7004 81.4999C60.7004 80.0999 57.6004 79.8999 54.5004 81.0999C53.0004 81.6999 51.6004 82.3999 50.2004 83.0999C47.5004 84.3999 44.7004 84.3999 42.0004 82.9999C41.0004 82.4999 39.9004 81.9999 38.9004 81.4999C35.6004 79.8999 32.3004 79.8 28.9004 81.4C27.6004 82 26.3004 82.7 25.1004 83.4C22.9004 84.6 20.7004 84.5 18.6004 83.3C17.8004 82.8 17.0004 82.2999 15.9004 81.9999C18.3004 84.0999 20.9004 85.8999 23.7004 87.4999C23.9004 87.4999 24.1004 87.4 24.3004 87.4C26.0004 87 27.4004 86.0999 28.8004 85.1999C32.3004 83.0999 35.7004 83.3 39.1004 85.4C43.8004 88.3 48.5004 88.2999 53.1004 85.4999C56.8004 83.2999 60.4004 83.0999 64.0004 85.4999C65.6004 86.4999 67.3004 87.2999 69.2004 87.5999C72.5004 85.7999 75.5004 83.4999 78.3004 80.9999C77.9004 81.0999 77.5004 81.3 77.2004 81.4C76.1004 82 74.9004 82.5999 73.7004 83.1999Z" fill="white"/>
    <path d="M42.8994 0.6C41.4994 3.4 40.7994 6.3 41.6994 9.4C42.0994 10.7 42.4994 12 43.2994 13.1C45.3994 16.1 45.6994 19 44.1994 21.9C44.6994 22.4 45.0994 22.9 45.5994 23.4C45.8994 23.8 46.1994 24.2 46.4994 24.6C46.7994 24.1 47.0994 23.5 47.3994 23C49.1994 19.8 49.1994 16.6 47.3994 13.4C47.0994 12.8 46.7994 12.2 46.3994 11.6C44.1994 8.1 44.2994 4.6 46.3994 1.1C46.7994 0.5 46.8994 0.2 46.7994 0H46.6994C45.4994 0 44.3994 0.1 43.1994 0.1C43.0994 0.3 42.9994 0.5 42.8994 0.6Z" fill="white"/>
    <path d="M49.0992 0.599951C47.3992 3.79995 46.8992 7.19995 48.2992 10.6999C48.8992 12.3999 49.8992 13.7999 50.6992 15.3999C51.0992 16.2999 51.3992 17.0999 51.3992 18.0999C52.1992 17.6999 53.0992 17.4999 54.0992 17.4999H54.7992C54.6992 16.0999 54.2992 14.6999 53.4992 13.3999C53.1992 12.8999 52.9992 12.4999 52.6992 11.9999C50.3992 8.49995 50.1992 4.89995 52.4992 1.29995C52.5992 1.09995 52.6992 0.899951 52.6992 0.799951C52.6992 0.699951 52.6992 0.599951 52.6992 0.499951C51.6992 0.399951 50.6992 0.299951 49.6992 0.199951C49.3992 0.299951 49.1992 0.499951 49.0992 0.599951Z" fill="white"/>
    <path d="M35.001 8.4001C35.501 10.9001 36.701 13.0001 37.901 15.2001C38.501 16.3001 38.801 17.4001 38.701 18.4001C39.801 18.8001 40.901 19.4001 41.901 20.0001C42.401 17.7001 41.901 15.4001 40.601 13.1001C40.401 12.7001 40.201 12.3001 39.901 12.0001C37.701 8.5001 37.501 5.0001 39.701 1.4001C39.701 1.3001 39.801 1.3001 39.801 1.2001C39.901 0.900098 40.001 0.700098 39.901 0.600098C38.601 0.800098 37.301 1.0001 36.001 1.3001C35.901 1.4001 35.901 1.5001 35.801 1.7001C35.001 3.8001 34.501 6.0001 35.001 8.4001Z" fill="white"/>
    <path d="M54.9985 1.3999C53.9985 3.6999 53.3985 5.9999 53.8985 8.4999C54.3985 10.9999 55.6985 13.1999 56.8985 15.3999C57.2985 16.0999 57.4985 16.8999 57.5985 17.5999H60.9985C60.8985 16.1999 60.3985 14.6999 59.5985 13.2999C59.0985 12.3999 58.5985 11.3999 58.0985 10.3999C56.8985 7.8999 56.7985 5.3999 57.9985 2.8999C58.2985 2.1999 58.4985 1.8999 58.3985 1.5999C57.3985 1.2999 56.3985 1.0999 55.2985 0.899902C55.1985 0.999898 55.0985 1.1999 54.9985 1.3999Z" fill="white"/>
    <path d="M60.7999 10.9C61.3999 12.4 62.1999 13.8 62.9999 15.2C63.4999 16 63.6999 16.8 63.8999 17.6H67.2999C67.1999 16.5 66.8999 15.4 66.2999 14.3C65.7999 13.2 65.1999 12.2 64.5999 11.1C63.3999 8.80002 62.8999 6.50002 63.8999 4.00002C63.9999 3.80002 63.9999 3.70002 63.9999 3.50002C62.9999 3.10002 61.9999 2.70002 60.9999 2.40002C60.7999 2.60002 60.7999 2.80002 60.6999 3.10002C59.6999 5.60002 59.7999 8.30002 60.7999 10.9Z" fill="white"/>
    <path d="M66.5998 8.6C66.9998 10.8 68.0998 12.7 69.1998 14.6C69.7998 15.6 70.0998 16.6 70.2998 17.5C71.3998 17.6 72.5998 17.9 73.7998 18.6C73.7998 18.5 73.7998 18.4 73.7998 18.2C73.6998 16.1 72.8998 14.2 71.8998 12.4C70.9998 10.8 69.9998 9.2 69.8998 7.4C69.8998 6.8 69.7998 6.4 69.5998 6C68.6998 5.5 67.6998 5 66.7998 4.5C66.6998 4.6 66.5998 4.8 66.5998 5C66.4998 6.3 66.3998 7.5 66.5998 8.6Z" fill="white"/>
    <path d="M28.3008 6.89995C28.3008 7.39995 28.4008 7.89995 28.5008 8.39995C28.9008 10.8999 30.2008 12.9999 31.4008 15.1999C31.8008 15.9999 32.1008 16.6999 32.2008 17.4999H33.4008C34.1008 17.4999 34.9008 17.5999 35.6008 17.6999C35.5008 16.4999 35.1008 15.2999 34.5008 13.9999C34.2008 13.4999 34.0008 12.8999 33.6008 12.3999C31.7008 9.29995 30.8008 6.19995 32.6008 2.79995C32.8008 2.49995 32.8008 2.29995 32.6008 2.19995C31.4008 2.59995 30.2008 2.99995 29.0008 3.49995C28.5008 4.19995 28.3008 5.19995 28.3008 6.89995Z" fill="white"/>
    <path d="M22.0003 8.9C22.5003 11.2 23.7003 13.2 24.8003 15.2C25.2003 16 25.5003 16.7 25.6003 17.5H29.0003C28.9003 15.9 28.3003 14.5 27.5003 13.1C26.3003 10.9 24.9003 8.7 25.1003 6.1C25.1003 5.9 25.1003 5.6 24.9003 5.5C24.1003 5.9 23.2003 6.4 22.4003 6.9C22.0003 7.5 21.8003 8.2 22.0003 8.9Z" fill="white"/>
    <path d="M16.5005 34.6999C16.7005 34.9999 16.8005 35.3999 17.0005 35.6999V26.5999C17.0005 25.5999 17.1005 24.6999 17.3005 23.8999C17.1005 24.1999 16.9005 24.5999 16.8005 24.8999C15.2005 28.0999 15.0005 31.2999 16.5005 34.6999Z" fill="white"/>
    <path d="M16.8996 12.1001C17.4996 13.1001 17.9996 14.1001 18.4996 15.0001C19.3996 16.6001 19.5996 18.1001 19.1996 19.7001C20.1996 18.6001 21.3996 17.9001 22.6996 17.6001C22.5996 16.2001 22.1996 14.9001 21.4996 13.6001C20.9996 12.6001 20.3996 11.6001 19.8996 10.6001C19.3996 9.6001 19.0996 9.1001 18.7996 9.1001C17.9996 9.7001 17.2996 10.2001 16.5996 10.8001C16.5996 11.3001 16.5996 11.7001 16.8996 12.1001Z" fill="white"/>
    <path d="M74.1996 35.3001C74.7996 36.6001 75.4996 37.9001 76.0996 39.2001C76.2996 39.5001 76.3996 39.9001 76.4996 40.2001C77.6996 42.1001 78.1996 44.3001 78.4996 46.7001C78.6996 46.6001 78.8996 46.6001 78.9996 46.5001C79.3996 46.3001 79.4996 46.0001 79.5996 45.6001C80.2996 42.8001 80.2996 40.2001 78.9996 37.6001C78.2996 36.1001 77.5996 34.7001 76.8996 33.2001C76.2996 31.8001 76.0996 30.4001 76.2996 29.1001C75.9996 29.6001 75.7996 29.9001 75.6996 30.0001C74.9996 30.8001 74.0996 31.5001 73.0996 32.0001C73.2996 33.1001 73.5996 34.2001 74.1996 35.3001Z" fill="white"/>
    <path d="M73.2991 9.40005C73.7991 11.4001 74.7991 13.2001 75.7991 14.9001C76.9991 16.9001 77.0991 19.0001 76.0991 21.1001C76.0991 21.1001 76.0991 21.2001 76.1991 21.2001C76.7991 22.3001 77.3991 23.4001 77.3991 25.4001C77.3991 25.6001 77.3991 25.8001 77.3991 26.0001C77.9991 24.8001 78.6991 23.6001 79.2991 22.4001C80.5991 19.7001 80.4991 17.1001 79.3991 14.3001C79.0991 13.7001 78.7991 13.1001 78.4991 12.5001C76.8991 11.0001 75.0991 9.60005 73.2991 8.30005C72.9991 8.60005 73.1991 9.00005 73.2991 9.40005Z" fill="white"/>
    <path d="M54.3991 87.3999C53.1991 87.8999 51.8992 88.4999 50.6992 89.0999C47.6992 90.6999 44.7991 90.6999 41.7991 89.0999C40.1991 88.1999 38.4991 87.3999 36.7991 86.8999C33.2991 85.8999 30.0991 86.7999 27.0991 88.4999C26.8991 88.5999 26.7992 88.6999 26.6992 88.7999C27.8992 89.3999 29.1991 89.8999 30.3991 90.3999C30.5991 90.3999 30.7991 90.3999 30.8991 90.2999C32.8991 89.4999 34.9991 89.4999 36.9991 90.3999C37.8991 90.7999 38.7992 91.2999 39.6992 91.6999C40.7992 92.1999 41.7991 92.7999 42.8991 93.0999C44.1991 93.3999 44.7992 93.5999 46.1992 93.5999C47.0992 93.5999 48.5991 93.4999 49.3991 93.1999C50.7991 92.7999 52.0991 92.0999 53.3991 91.3999C55.7991 90.0999 58.3991 88.8999 61.0991 90.1999C61.4991 90.3999 61.8991 90.4999 62.2991 90.5999C63.5991 90.0999 64.8992 89.5999 66.1992 88.9999C66.0992 88.8999 66.0991 88.8999 65.8991 88.7999C62.3991 86.6999 58.5991 85.6999 54.3991 87.3999Z" fill="white"/>
    <path d="M1.4 49.2C1.8 49 2 48.6 2.2 48.2C2.6 47.2 3 46.2 3.2 45.1C4 41.8 3.3 38.7 1.3 35.7C0.399995 39.2 0 42.9 0 46.7C0 47.6 -1.52737e-06 48.4 0.0999985 49.3C0.299998 49.7 0.700002 49.6 1.4 49.2Z" fill="white"/>
    <path d="M9.60078 45C10.1008 42.7 10.1008 40.4 9.10078 38.2C8.40078 36.7 7.70078 35.2 7.00078 33.8C5.70078 31.2 5.80078 28.6 7.10078 26C7.70078 24.9 8.30078 23.9 8.80078 22.8C9.50078 21.3 10.1008 19.8 9.90078 18C6.90078 21.8 4.50078 26.1 2.80078 30.7C2.80078 30.9 2.80078 31.1 2.80078 31.3C3.10078 33.9 4.40078 36.2 5.60078 38.5C6.50078 40.2 6.80078 42 6.40078 43.8C6.30078 44.6 6.00078 45.4 5.70078 46.2C5.60078 46.6 5.60078 46.7 5.80078 46.8L9.20078 45.7C9.50078 45.6 9.60078 45.4 9.60078 45Z" fill="white"/>
    <path d="M15.7986 46.1C16.6986 43.2 16.6986 40.3 15.2986 37.5C14.5986 36.2001 13.9986 34.9 13.3986 33.5C12.2986 31.1 12.2986 28.8 13.3986 26.4C13.8986 25.3 14.4986 24.3 15.0986 23.2C15.8986 21.6 16.5985 20 16.4985 18.2C16.5985 16.5 15.9986 14.9 15.1986 13.4C15.0986 13.1 14.8986 12.8 14.5986 12.8C13.9986 13.4 13.3986 13.9 12.8986 14.5C12.6986 15 12.5986 15.5 12.7986 15.9C13.4986 17.5 13.4986 19.2 12.6986 20.8C12.1986 21.7 11.6986 22.6 11.1986 23.5C8.99861 27.4 8.69861 31.3001 10.6986 35.4001C11.1986 36.5001 11.6986 37.6 12.2986 38.6C13.2986 40.4 13.3986 42.3 12.8986 44.3C12.6986 45.2001 12.5986 45.6001 12.6986 45.9001L15.3986 46.8C15.5986 46.8 15.6986 46.5 15.7986 46.1Z" fill="white"/>
    <path d="M85.7995 45.7001C86.4995 43.1 86.5995 40.5 85.3995 38C84.7995 36.8 84.1995 35.5 83.5995 34.3C81.9995 31.3 82.0995 28.4 83.7995 25.5C84.3995 24.3 85.0995 23.2 85.5995 22C85.6995 21.8 85.7995 21.6 85.7995 21.5C84.9995 20.2 84.0995 19 83.0995 17.8C83.1995 20.1 81.8995 21.9 80.8995 23.8C80.7995 24.1 80.5995 24.4001 80.4995 24.7001C78.6995 28.3001 78.6995 31.8001 80.3995 35.4001C80.9995 36.6001 81.4995 37.7 82.0995 38.8C82.8995 40.4 83.1995 42.1001 82.7995 43.9001C82.5995 45.0001 82.4995 45.6001 82.7995 45.9001L85.1995 46.5C85.4995 46.3 85.6995 46.1 85.7995 45.7001Z" fill="white"/>
    <path d="M91.2991 48C92.0991 46.1 92.5991 44.2001 92.5991 42C92.6991 40.5 92.199 39 91.499 37.6C90.799 36.1 89.9991 34.6 89.3991 33.1C88.7991 31.7 88.3991 30.2 88.8991 28.8C89.0991 28.4 89.0991 28.0001 89.1991 27.6C88.5991 26.3001 87.9991 25 87.2991 23.8C87.1991 23.9 87.0991 24.0001 87.0991 24.2001C85.4991 27.3001 84.9991 30.5001 86.0991 33.9001C86.6991 35.5001 87.3991 37.0001 88.1991 38.4001C89.5991 40.9001 89.4991 43.3001 88.5991 45.9001C88.1991 46.9001 88.0991 47.3001 88.2991 47.7001L90.5991 48.9001C90.7991 48.7001 91.0991 48.4 91.2991 48Z" fill="white"/>
  </g>
  <defs>
    <clipPath id="clip0_443_1979">
      <rect width="94" height="94" fill="white"/>
    </clipPath>
  </defs>
</svg>